<?xml version="1.0" standalone="no"?>
<!DOCTYPE svg PUBLIC "-//W3C//DTD SVG 20010904//EN"
 "http://www.w3.org/TR/2001/REC-SVG-20010904/DTD/svg10.dtd">
<svg version="1.0" xmlns="http://www.w3.org/2000/svg"
 width="298.000000pt" height="169.000000pt" viewBox="0 0 298.000000 169.000000"
 preserveAspectRatio="xMidYMid meet">

<g transform="translate(0.000000,169.000000) scale(0.100000,-0.100000)"
fill="#000000" stroke="none">
<path d="M1440 1633 c0 -5 -17 -7 -37 -5 -57 4 -68 -8 -68 -78 0 -33 -3 -60
-7 -60 -12 0 -9 -69 4 -93 10 -20 10 -21 -5 -8 -15 12 -17 11 -17 -3 0 -17 11
-19 48 -10 21 6 21 7 5 21 -17 13 -16 13 4 4 12 -6 64 -11 115 -11 59 0 119
-7 165 -20 57 -15 80 -17 103 -9 16 6 28 15 25 19 -3 4 2 11 11 14 9 4 13 2 8
-5 -4 -7 2 -6 16 1 l23 13 -24 13 c-29 16 -21 18 17 4 22 -9 36 -7 70 10 24
11 48 20 54 20 5 0 10 4 10 8 0 11 -34 42 -45 42 -4 0 -23 12 -42 26 -19 14
-41 23 -49 20 -8 -3 -13 -2 -10 3 9 14 -40 31 -53 18 -9 -9 -11 -8 -6 4 5 12
-8 19 -59 33 -36 10 -70 15 -75 11 -6 -3 -11 -2 -11 2 0 5 -11 10 -25 11 -14
1 -25 -4 -25 -11 0 -9 -2 -9 -9 1 -9 15 -111 29 -111 15z m345 -85 c-9 -6 -19
-7 -22 -4 -4 3 -1 6 6 6 7 0 9 4 6 10 -4 6 1 7 11 3 15 -6 15 -7 -1 -15z m129
-63 c11 -8 15 -15 10 -15 -6 0 -19 7 -30 15 -10 8 -14 14 -9 14 6 0 19 -6 29
-14z m-573 -38 c-10 -9 -11 -8 -5 6 3 10 9 15 12 12 3 -3 0 -11 -7 -18z m339
-37 c0 -5 -5 -10 -11 -10 -5 0 -7 5 -4 10 3 6 8 10 11 10 2 0 4 -4 4 -10z"/>
<path d="M1146 1560 c-134 -68 -219 -146 -300 -273 -35 -55 -76 -139 -76 -157
0 -10 193 -150 208 -150 5 0 13 15 16 34 17 88 104 216 197 288 13 10 19 45
28 152 7 76 10 140 8 142 -2 2 -38 -14 -81 -36z"/>
<path d="M1980 1354 c-30 -14 -57 -29 -60 -33 -3 -3 -12 -6 -20 -6 -8 0 -14
-5 -13 -12 2 -7 -3 -10 -11 -7 -8 3 -25 0 -37 -6 l-22 -12 30 -27 c62 -54 143
-214 143 -284 0 -24 19 -44 75 -83 127 -88 156 -105 166 -98 8 5 10 43 7 128
-4 96 -11 138 -32 201 -41 122 -127 266 -159 265 -7 -1 -37 -12 -67 -26z"/>
<path d="M1405 1177 c-62 -21 -97 -42 -137 -84 -139 -144 -95 -390 87 -478 44
-22 68 -27 129 -27 95 1 160 27 219 91 177 190 61 492 -195 507 -36 2 -80 -2
-103 -9z m69 -128 c66 -52 1 -153 -74 -114 -66 34 -40 130 36 134 6 1 23 -8
38 -20z m133 -265 c8 -22 -10 -49 -32 -49 -22 0 -40 27 -32 49 8 21 56 21 64
0z"/>
<path d="M1973 740 c-12 -38 -38 -94 -57 -124 -19 -30 -31 -58 -28 -62 4 -4 2
-4 -5 0 -6 3 -20 -6 -32 -22 -11 -16 -35 -39 -54 -52 -33 -23 -35 -27 -41
-104 -4 -45 -10 -107 -13 -138 l-6 -58 32 11 c17 6 28 16 24 22 -3 6 -1 7 5 3
6 -4 30 4 53 16 23 13 53 29 66 36 13 8 27 20 30 28 3 8 11 14 18 14 15 0 134
125 136 143 1 7 1 16 0 20 -1 5 3 6 8 3 12 -8 106 183 95 193 -16 14 -175 121
-180 121 -3 0 -2 -6 2 -12 5 -9 2 -9 -9 1 -19 15 -23 26 -5 15 7 -4 8 -3 4 4
-14 22 -21 12 -43 -58z m135 -195 c-3 -3 -9 2 -12 12 -6 14 -5 15 5 6 7 -7 10
-15 7 -18z"/>
</g>
</svg>
